<svg xmlns="http://www.w3.org/2000/svg" viewBox="0 0 120 150">
  <!-- 吉祥物：举着放大镜（侦探 pose，未使用备用） -->
  <g stroke-linecap="round" stroke-linejoin="round">
    <ellipse cx="58" cy="142" rx="30" ry="6" fill="#000" opacity=".25"/>
    <path d="M50 118 L50 134" stroke="#d9a06b" stroke-width="9" fill="none"/>
    <path d="M68 118 L68 134" stroke="#d9a06b" stroke-width="9" fill="none"/>
    <ellipse cx="49" cy="138" rx="9" ry="5" fill="#35e0e6" stroke="#1fa9ae" stroke-width="2"/>
    <ellipse cx="69" cy="138" rx="9" ry="5" fill="#35e0e6" stroke="#1fa9ae" stroke-width="2"/>
    <path d="M46 82 L36 122 Q59 130 82 122 L72 82 Z" fill="#ff5aa2" stroke="#c93a78" stroke-width="2.5"/>
    <path d="M40 112 Q59 120 78 112" fill="none" stroke="#fff" stroke-width="4" opacity=".85"/>
    <path d="M32 84 Q22 96 26 106" fill="none" stroke="#d9a06b" stroke-width="9"/>
    <circle cx="27" cy="108" r="7" fill="#ffe3c9" stroke="#d9a06b" stroke-width="2"/>
    <circle cx="59" cy="46" r="34" fill="#ffe3c9" stroke="#d9a06b" stroke-width="2.5"/>
    <path d="M25 46 Q22 10 59 8 Q96 10 93 46 Q93 54 88 56 Q92 34 78 28 Q66 40 40 30 Q28 36 30 56 Q25 54 25 46 Z"
          fill="#ffd94a" stroke="#e0a80f" stroke-width="2.5"/>
    <path d="M27 42 Q24 62 32 72 Q36 60 33 44 Z" fill="#ffd94a" stroke="#e0a80f" stroke-width="2"/>
    <path d="M91 42 Q94 62 86 72 Q82 60 85 44 Z" fill="#ffd94a" stroke="#e0a80f" stroke-width="2"/>
    <circle cx="47" cy="52" r="5" fill="#141826"/>
    <circle cx="71" cy="52" r="5" fill="#141826"/>
    <circle cx="48.8" cy="50.2" r="1.7" fill="#fff"/>
    <circle cx="72.8" cy="50.2" r="1.7" fill="#fff"/>
    <ellipse cx="39" cy="60" rx="5" ry="3" fill="#ffb3c9" opacity=".85"/>
    <ellipse cx="79" cy="60" rx="5" ry="3" fill="#ffb3c9" opacity=".85"/>
    <path d="M53 63 Q59 69 65 63" fill="none" stroke="#b3552e" stroke-width="2.5"/>
    <path d="M53 76 L59 80 L65 76 L65 84 L59 88 L53 84 Z" fill="#35e0e6" stroke="#1fa9ae" stroke-width="1.5"/>
    <!-- 前手臂举放大镜 -->
    <path d="M86 80 Q98 72 100 62" fill="none" stroke="#d9a06b" stroke-width="9"/>
    <circle cx="72.8" cy="50.2" r="1.7" fill="#fff" opacity="0"/>
    <circle cx="100" cy="54" r="4" fill="#ffe3c9" stroke="#d9a06b" stroke-width="2" transform="translate(2 -4)"/>
    <!-- 放大镜 -->
    <circle cx="104" cy="38" r="11" fill="#bfe9ff" opacity=".45" stroke="#35e0e6" stroke-width="3.5"/>
    <path d="M96 47 L88 57" stroke="#35e0e6" stroke-width="4.5"/>
  </g>
</svg>
